<?xml version="1.0" encoding="UTF-8"?>
<svg xmlns="http://www.w3.org/2000/svg" xmlns:xlink="http://www.w3.org/1999/xlink" viewBox="0 0 250 250" version="1.1">
	<style type="text/css">
		@font-face {
			font-family: 'Vollkorn';
			src: url('./Vollkorn-Medium.woff2') format('woff2');
		}
	</style>
	<defs>
		<filter id="blr" x="-50%" y="-50%" width="200%" height="200%">
			<feGaussianBlur stdDeviation="2" in="SourceGraphic" result="blur" />
		</filter>
		<g id="sparkle" stroke="none">
			<path d="M 0 -5 C 1 -1 1 -1 5 0 C 1 1 1 1 0 5 C -1 1 -2 1 -5 0 C -1 -1 -1 -1 0 -5 Z" />
			<path d="M 0 -1 L 3 -3 L 1 0 L 3 3 L 0 1 L -3 3 L -1 0 L -3 -3 Z" />
		</g>
	</defs>
	<g display="none" id="arrow" fill="#69f" opacity="0.3" stroke="none">
		<rect id="arrln" x="10" y="124" width="235" height="2" rx="1" ry="1" />
		<polygon id="arrhd" points="250,125 240,115 240,135" />
	</g>
	<g display="none" id="sprk">
		<use xlink:href="#sparkle" style="filter:url(#blr)" />
		<use xlink:href="#sparkle" />
	</g>
	<g fill="#000" stroke="none" text-anchor="middle" text-align="center">
		<text display="none" id="txt" font-family="Vollkorn" font-variant="small-caps" x="125" y="115">Leistung: 10000 Watt</text>
	</g>
</svg>
