<?xml version="1.0" encoding="UTF-8"?>
<svg xmlns="http://www.w3.org/2000/svg" xmlns:xlink="http://www.w3.org/1999/xlink" viewBox="0 0 100 100" version="1.1">
	<style type="text/css">
		@font-face {
			font-family: 'Vollkorn';
			src: url('./Vollkorn-Medium.woff2') format('woff2');
		}
	</style>
	<g id="batt">
		<g id="disc" fill="#444" stroke="none">
			<rect width="25" height="43.5" x="50" y="8" ry="0" rx="0" />
			<rect width="6" height="8" x="50" y="50" ry="0" rx="0" />
			<rect width="4" height="8" x="71" y="50" ry="0" rx="0" />
			<rect width="25" height="13.5" x="50" y="55.5" ry="0" rx="0" />
		</g>
		<g id="chrg" fill="none" stroke="#444" stroke-width="4">
			<line x1="30.5" y1="19.5" x2="45.5" y2="19.5" />
			<line x1="38" y1="12" x2="38" y2="27" />
		</g>
		<g  stroke="#444" stroke-width="4">
			<rect fill="none" width="50" height="60" x="25" y="8" ry="1" rx="1" />
			<rect fill="#444" width="20" height="4" x="40" y="3" rx="1" ry="1" />
		</g>
	</g>
	<g display="none" id="weathr" fill="none" stroke="#444" stroke-width="2" stroke-linecap="round">
		<circle cx="80" cy="18" r="9" />
		<line x1="0" y1="-16" x2="0" y2="-12" transform="translate(80 18)" />
		<line x1="0" y1="-16" x2="0" y2="-12" transform="translate(80 18) rotate(45)" />
		<line x1="0" y1="-16" x2="0" y2="-12" transform="translate(80 18) rotate(90)" />
		<line x1="0" y1="-16" x2="0" y2="-12" transform="translate(80 18) rotate(135)" />
		<line x1="0" y1="-16" x2="0" y2="-12" transform="translate(80 18) rotate(180)" />
		<line x1="0" y1="-16" x2="0" y2="-12" transform="translate(80 18) rotate(225)" />
		<line x1="0" y1="-16" x2="0" y2="-12" transform="translate(80 18) rotate(270)" />
		<line x1="0" y1="-16" x2="0" y2="-12" transform="translate(80 18) rotate(315)" />
	</g>
	<g display="none" id="clock" fill="none" stroke="#444" stroke-width="2" stroke-linecap="round">
		<circle cx="80" cy="53" r="12.5" />
		<line x1="85" y1="44.34" x2="80" y2="53" />
		<line x1="74.8" y1="50" x2="80" y2="53" />
	</g>
	<g fill="#444" stroke="none" text-anchor="middle" text-align="center">
		<text id="txt" font-family="Vollkorn" font-variant="small-caps" x="50" y="83">keine</text>
		<text id="lock" font-family="Vollkorn" font-variant="small-caps" x="50" y="97">Sperre</text>
	</g>
</svg>
