<?xml version="1.0" encoding="UTF-8"?>
<svg xmlns="http://www.w3.org/2000/svg" xmlns:xlink="http://www.w3.org/1999/xlink" viewBox="0 0 250 250" version="1.1">
	<style type="text/css">
		@font-face {
			font-family: 'Vollkorn';
			src: url('./Vollkorn-Medium.woff2') format('woff2');
		}
	</style>
	<defs>
		<filter id="fsmk" x="-50%" y="-50%" width="200%" height="200%">
			<feGaussianBlur stdDeviation="1.5" in="SourceGraphic" result="blur" />
		</filter>
		<filter id="fshn" x="-50%" y="-50%" width="200%" height="200%">
			<feGaussianBlur stdDeviation="3" in="SourceGraphic" />
		</filter>
	</defs>
	<g fill="#fff" stroke="none" style="filter:url(#fsmk)">
		<ellipse id="smk1" cx="141" cy="32" rx="8" ry="10" />
		<ellipse id="smk2" cx="145" cy="30" rx="7" ry="5" />
		<circle id="smk3" cx="146" cy="36" r="9" />
		<rect id="smk4" width="17" height="15" x="143" y="49" ry="3" rx="3" />
		<rect id="smk5" width="14" height="20" x="142" y="52" ry="3" rx="2" />
		<ellipse id="smk6" cx="143" cy="55" rx="8" ry="6" />
	</g>
	<g id="house" fill="none" stroke="#444" stroke-width="4">
		<path id="paint" fill="#f8f0e8" d="M 26 109 L 26 200 L 224 200 L 224 120 L 61.75 37.5 Z" />
		<path id="base" d="M 26 109 L 26 200 L 224 200 L 224 120" />
		<path id="roof" fill="#a20" d="M 59 32 L 103 120 L 235 120 L 191 32 L 158 32 L 158 65 L 158 25 L 130 25 L 130 65 L 130 32 L 59 32 L 15 120 L 26 120 L 26 109 L 61.75 37.5 Z" />
		<path id="chimney" fill="#ccc" stroke="none" d="M 132 27 L 156 27 L 156 65 L 132 65 Z" />
		<path id="corner" d="M 114 200 L 114 120" />
		<path id="door" fill="#d85" d="M 48 200 L 48 128 L 92 128 L 92 200 Z" />
		<path display="none" id="winout" fill="#fd8" stroke="#fd8" d="M 194 134 L 194 184 L 144 184 L 144 134 Z" style="filter:url(#fshn)" />
		<path id="window" d="M 169 137 L 191 137 L 191 181 L 147 181 L 147 137 Z" />
		<path id="wincrossv" d="M 169 137 L 169 181" />
		<path id="wincrossh" d="M 147 159 L 191 159" />
	</g>
	<text id="txt" font-family="Vollkorn" font-variant="small-caps" fill="#000" stroke="none" x="125" y="225" text-anchor="middle" text-align="center">Hausverbrauch: 1000 Watt</text>
</svg>
