<?xml version="1.0" encoding="UTF-8"?>
<svg xmlns="http://www.w3.org/2000/svg" xmlns:xlink="http://www.w3.org/1999/xlink" viewBox="0 0 100 100" version="1.1">
	<style type="text/css">
		@font-face {
			font-family: 'Vollkorn';
			src: url('./Vollkorn-Medium.woff2') format('woff2');
		}
	</style>
	<defs>
		<mask id="boxpower">
			<rect fill="white" x="0" y="0" width="100%" height="100%" />
			<circle fill="black" cx="22" cy="52" r="3.5" />
		</mask>
		<mask id="lichter">
			<rect fill="white" x="0" y="0" width="100%" height="100%" />
			<circle fill="black" cx="60" cy="67" r="4.2" />
			<circle fill="black" cx="91" cy="67" r="4.2" />
		</mask>
	</defs>
	<g display="none" id="box" fill="none" stroke="#444" stroke-width="3">
		<path id="innentrapez" fill="#444" stroke-width="1" d="M 9 17 L 15 62 L 29 62 L 35 17 Z" mask="url(#boxpower)" />
		<path id="umriss" d="M 22 17 L 40 17 A 2 2 0 0 1 42 19 L 42 60 A 2 2 0 0 1 40 62 L 4 62 A 2 2 0 0 1 2 60 L 2 19 A 2 2 0 0 1 4 17 Z" />
	</g>
	<g display="none" id="boxplug" fill="none" stroke="#444">
		<path id="bcable" stroke-width="4" d="M 22 62 L 22 67 A 3 3 0 0 0 25 70 L 48 70 A 3 3 0 0 0 51 67 L 51 50" />
		<path id="bplug" stroke-width="3" d="M 42 23 L 54 27 L 54 50 L 48 50 L 48 35 L 42 33 Z" />
	</g>
	<g display="none" id="car" fill="#444" stroke="#444" stroke-width="3">
		<path id="fenster" stroke-width="1" d="M 53 75 L 53 62 L 54 59 L 97 59 L 98 62 L 98 75 Z" mask="url(#lichter)" />
		<path id="autoumriss" fill="none" d="M 53 75 L 53 62 L 58 47 L 93 47 L 98 62 L 98 75 Z" />
		<path id="lreifen" d="M 56 79 L 63 79 L 63 84 L 56 84 Z" />
		<path id="rreifen" d="M 88 79 L 95 79 L 95 84 L 88 84 Z" />
	</g>
	<g display="none" id="carplug" stroke="#444">
		<path id="ccable" stroke-width="4" fill="none" d="M 22 62 L 22 65 A 3 3 0 0 0 25 68 L 49 68" />
		<path id="cplug" stroke-width="3" fill="#444" d="M 53 64 L 49 64 A 4 4 0 0 0 49 72 L 53 72 Z" />
	</g>
	<g fill="#000" stroke="none" text-anchor="middle" text-align="center">
		<text display="none" id="wbxy" font-family="Vollkorn" font-variant="small-caps" font-size="95%" x="50" y="12">Ladestation</text>
		<text display="none" id="txt" font-family="Vollkorn" font-variant="small-caps" x="50" y="98">0 Watt</text>
	</g>
</svg>
